<mxfile host="65bd71144e">
    <diagram id="Syr2UiJTJTMxiWn9VxfQ" name="Page-1">
        <mxGraphModel dx="396" dy="230" grid="1" gridSize="10" guides="1" tooltips="1" connect="1" arrows="1" fold="1" page="1" pageScale="1" pageWidth="850" pageHeight="1100" math="0" shadow="0">
            <root>
                <mxCell id="0"/>
                <mxCell id="1" parent="0"/>
                <mxCell id="3xOwDgOu1gSvXdPCBqq_-8" style="edgeStyle=orthogonalEdgeStyle;rounded=0;orthogonalLoop=1;jettySize=auto;html=1;" parent="1" source="3xOwDgOu1gSvXdPCBqq_-1" target="3xOwDgOu1gSvXdPCBqq_-7" edge="1">
                    <mxGeometry relative="1" as="geometry"/>
                </mxCell>
                <mxCell id="3xOwDgOu1gSvXdPCBqq_-1" value="Запуск" style="rounded=1;whiteSpace=wrap;html=1;glass=0;shadow=0;sketch=0;rotation=0;" parent="1" vertex="1">
                    <mxGeometry x="365" y="20" width="120" height="60" as="geometry"/>
                </mxCell>
                <mxCell id="3xOwDgOu1gSvXdPCBqq_-2" value="" style="strokeWidth=2;html=1;shape=mxgraph.flowchart.annotation_2;align=left;labelPosition=right;pointerEvents=1;shadow=0;glass=0;sketch=0;" parent="1" vertex="1">
                    <mxGeometry x="490" y="70" width="50" height="90" as="geometry"/>
                </mxCell>
                <mxCell id="3xOwDgOu1gSvXdPCBqq_-3" value="#include &amp;lt;iostream&amp;gt;" style="text;html=1;strokeColor=none;fillColor=none;align=center;verticalAlign=middle;whiteSpace=wrap;rounded=0;shadow=0;glass=0;sketch=0;" parent="1" vertex="1">
                    <mxGeometry x="510" y="70" width="140" height="30" as="geometry"/>
                </mxCell>
                <mxCell id="3xOwDgOu1gSvXdPCBqq_-4" value="using namespace std;" style="text;html=1;strokeColor=none;fillColor=none;align=center;verticalAlign=middle;whiteSpace=wrap;rounded=0;shadow=0;glass=0;sketch=0;" parent="1" vertex="1">
                    <mxGeometry x="520" y="100" width="120" height="30" as="geometry"/>
                </mxCell>
                <mxCell id="3xOwDgOu1gSvXdPCBqq_-5" value="int main()" style="text;html=1;strokeColor=none;fillColor=none;align=center;verticalAlign=middle;whiteSpace=wrap;rounded=0;shadow=0;glass=0;sketch=0;" parent="1" vertex="1">
                    <mxGeometry x="520" y="130" width="60" height="30" as="geometry"/>
                </mxCell>
                <mxCell id="3xOwDgOu1gSvXdPCBqq_-6" value="" style="endArrow=none;dashed=1;html=1;rounded=0;entryX=0;entryY=0.5;entryDx=0;entryDy=0;entryPerimeter=0;" parent="1" target="3xOwDgOu1gSvXdPCBqq_-2" edge="1">
                    <mxGeometry width="50" height="50" relative="1" as="geometry">
                        <mxPoint x="430" y="115" as="sourcePoint"/>
                        <mxPoint x="540" y="160" as="targetPoint"/>
                    </mxGeometry>
                </mxCell>
                <mxCell id="3" style="edgeStyle=none;html=1;" edge="1" parent="1" source="3xOwDgOu1gSvXdPCBqq_-7" target="2">
                    <mxGeometry relative="1" as="geometry"/>
                </mxCell>
                <mxCell id="3xOwDgOu1gSvXdPCBqq_-7" value="int n;" style="rounded=0;whiteSpace=wrap;html=1;shadow=0;glass=0;sketch=0;" parent="1" vertex="1">
                    <mxGeometry x="365" y="170" width="120" height="40" as="geometry"/>
                </mxCell>
                <mxCell id="5" style="edgeStyle=none;html=1;entryX=0.5;entryY=0;entryDx=0;entryDy=0;" edge="1" parent="1" source="3xOwDgOu1gSvXdPCBqq_-9" target="3xOwDgOu1gSvXdPCBqq_-10">
                    <mxGeometry relative="1" as="geometry"/>
                </mxCell>
                <mxCell id="3xOwDgOu1gSvXdPCBqq_-9" value="cin &gt;&gt; n;" style="shape=parallelogram;perimeter=parallelogramPerimeter;whiteSpace=wrap;html=1;fixedSize=1;" parent="1" vertex="1">
                    <mxGeometry x="365" y="330" width="120" height="50" as="geometry"/>
                </mxCell>
                <mxCell id="7" style="edgeStyle=none;html=1;entryX=0.5;entryY=0;entryDx=0;entryDy=0;" edge="1" parent="1" source="3xOwDgOu1gSvXdPCBqq_-10" target="6">
                    <mxGeometry relative="1" as="geometry"/>
                </mxCell>
                <mxCell id="3xOwDgOu1gSvXdPCBqq_-10" value="int spaces = n / 2;&lt;br&gt;int stars=1;" style="rounded=0;whiteSpace=wrap;html=1;" parent="1" vertex="1">
                    <mxGeometry x="365.5" y="410" width="120" height="60" as="geometry"/>
                </mxCell>
                <mxCell id="4" style="edgeStyle=none;html=1;" edge="1" parent="1" source="2" target="3xOwDgOu1gSvXdPCBqq_-9">
                    <mxGeometry relative="1" as="geometry"/>
                </mxCell>
                <mxCell id="2" value="cout &lt;&lt; &quot;введите основание больше 3 и нечетное&quot; &lt;&lt; endl;" style="shape=parallelogram;perimeter=parallelogramPerimeter;whiteSpace=wrap;html=1;fixedSize=1;" vertex="1" parent="1">
                    <mxGeometry x="327" y="240" width="196" height="60" as="geometry"/>
                </mxCell>
                <mxCell id="11" style="edgeStyle=orthogonalEdgeStyle;html=1;entryX=0.5;entryY=0;entryDx=0;entryDy=0;" edge="1" parent="1" source="6" target="8">
                    <mxGeometry relative="1" as="geometry">
                        <mxPoint x="230" y="539.9999999999999" as="targetPoint"/>
                        <Array as="points">
                            <mxPoint x="245" y="540"/>
                        </Array>
                    </mxGeometry>
                </mxCell>
                <mxCell id="66" style="edgeStyle=orthogonalEdgeStyle;html=1;" edge="1" parent="1" source="6">
                    <mxGeometry relative="1" as="geometry">
                        <mxPoint x="515" y="1540" as="targetPoint"/>
                        <Array as="points">
                            <mxPoint x="590" y="540"/>
                            <mxPoint x="590" y="1440"/>
                            <mxPoint x="515" y="1440"/>
                        </Array>
                    </mxGeometry>
                </mxCell>
                <mxCell id="6" value="if ((n &gt; 3) and (n % 2 != 0))" style="rhombus;whiteSpace=wrap;html=1;" vertex="1" parent="1">
                    <mxGeometry x="335" y="500" width="180" height="80" as="geometry"/>
                </mxCell>
                <mxCell id="19" style="edgeStyle=orthogonalEdgeStyle;html=1;entryX=0.5;entryY=0;entryDx=0;entryDy=0;" edge="1" parent="1" source="8" target="12">
                    <mxGeometry relative="1" as="geometry"/>
                </mxCell>
                <mxCell id="65" style="edgeStyle=orthogonalEdgeStyle;html=1;entryX=0.5;entryY=0;entryDx=0;entryDy=0;" edge="1" parent="1" source="8" target="68">
                    <mxGeometry relative="1" as="geometry">
                        <mxPoint x="510" y="1470" as="targetPoint"/>
                        <Array as="points">
                            <mxPoint x="430" y="670"/>
                            <mxPoint x="430" y="1440"/>
                            <mxPoint x="515" y="1440"/>
                        </Array>
                    </mxGeometry>
                </mxCell>
                <mxCell id="8" value="for (int i = 1; i &lt;= (n + 1) / 2; i++)" style="shape=hexagon;perimeter=hexagonPerimeter2;whiteSpace=wrap;html=1;fixedSize=1;" vertex="1" parent="1">
                    <mxGeometry x="160" y="630" width="170" height="80" as="geometry"/>
                </mxCell>
                <mxCell id="16" style="edgeStyle=orthogonalEdgeStyle;html=1;entryX=0.5;entryY=0;entryDx=0;entryDy=0;" edge="1" parent="1" source="12" target="13">
                    <mxGeometry relative="1" as="geometry"/>
                </mxCell>
                <mxCell id="17" style="edgeStyle=orthogonalEdgeStyle;html=1;" edge="1" parent="1" source="12">
                    <mxGeometry relative="1" as="geometry">
                        <mxPoint x="245" y="1010" as="targetPoint"/>
                        <Array as="points">
                            <mxPoint x="400" y="800"/>
                            <mxPoint x="400" y="970"/>
                            <mxPoint x="245" y="970"/>
                        </Array>
                    </mxGeometry>
                </mxCell>
                <mxCell id="12" value="for (int j = 1; j &lt;= spaces; j++)" style="shape=hexagon;perimeter=hexagonPerimeter2;whiteSpace=wrap;html=1;fixedSize=1;" vertex="1" parent="1">
                    <mxGeometry x="160" y="760" width="170" height="80" as="geometry"/>
                </mxCell>
                <mxCell id="14" style="edgeStyle=orthogonalEdgeStyle;html=1;entryX=0;entryY=0.5;entryDx=0;entryDy=0;" edge="1" parent="1" source="13" target="12">
                    <mxGeometry relative="1" as="geometry">
                        <Array as="points">
                            <mxPoint x="130" y="920"/>
                            <mxPoint x="130" y="800"/>
                        </Array>
                    </mxGeometry>
                </mxCell>
                <mxCell id="13" value="cout &lt;&lt; &quot; &quot;;" style="shape=parallelogram;perimeter=parallelogramPerimeter;whiteSpace=wrap;html=1;fixedSize=1;" vertex="1" parent="1">
                    <mxGeometry x="185" y="890" width="120" height="60" as="geometry"/>
                </mxCell>
                <mxCell id="18" style="edgeStyle=orthogonalEdgeStyle;html=1;exitX=0.5;exitY=0;exitDx=0;exitDy=0;" edge="1" parent="1" source="15">
                    <mxGeometry relative="1" as="geometry">
                        <mxPoint x="245.5882352941178" y="1009.8823529411766" as="targetPoint"/>
                    </mxGeometry>
                </mxCell>
                <mxCell id="15" value="spaces--;" style="rounded=0;whiteSpace=wrap;html=1;" vertex="1" parent="1">
                    <mxGeometry x="185" y="1010" width="120" height="40" as="geometry"/>
                </mxCell>
                <mxCell id="48" style="edgeStyle=orthogonalEdgeStyle;html=1;entryX=0.5;entryY=0;entryDx=0;entryDy=0;" edge="1" parent="1">
                    <mxGeometry relative="1" as="geometry">
                        <mxPoint x="295" y="890" as="sourcePoint"/>
                        <mxPoint x="295" y="940" as="targetPoint"/>
                    </mxGeometry>
                </mxCell>
                <mxCell id="53" style="edgeStyle=orthogonalEdgeStyle;html=1;exitX=0.5;exitY=0;exitDx=0;exitDy=0;" edge="1" parent="1">
                    <mxGeometry relative="1" as="geometry">
                        <mxPoint x="295.5882352941178" y="1059.8823529411766" as="targetPoint"/>
                        <mxPoint x="295" y="1060" as="sourcePoint"/>
                    </mxGeometry>
                </mxCell>
                <mxCell id="55" style="edgeStyle=orthogonalEdgeStyle;html=1;entryX=0.5;entryY=0;entryDx=0;entryDy=0;" edge="1" parent="1" source="57" target="59">
                    <mxGeometry relative="1" as="geometry"/>
                </mxCell>
                <mxCell id="56" style="edgeStyle=orthogonalEdgeStyle;html=1;" edge="1" parent="1" source="57">
                    <mxGeometry relative="1" as="geometry">
                        <mxPoint x="245.06" y="1330" as="targetPoint"/>
                        <Array as="points">
                            <mxPoint x="400.06" y="1120"/>
                            <mxPoint x="400.06" y="1290"/>
                            <mxPoint x="245.06" y="1290"/>
                        </Array>
                    </mxGeometry>
                </mxCell>
                <mxCell id="57" value="for (int j = 1; j &amp;lt;= stars; j++)" style="shape=hexagon;perimeter=hexagonPerimeter2;whiteSpace=wrap;html=1;fixedSize=1;" vertex="1" parent="1">
                    <mxGeometry x="160.06" y="1080" width="170" height="80" as="geometry"/>
                </mxCell>
                <mxCell id="58" style="edgeStyle=orthogonalEdgeStyle;html=1;entryX=0;entryY=0.5;entryDx=0;entryDy=0;" edge="1" parent="1" source="59" target="57">
                    <mxGeometry relative="1" as="geometry">
                        <Array as="points">
                            <mxPoint x="130.06" y="1240"/>
                            <mxPoint x="130.06" y="1120"/>
                        </Array>
                    </mxGeometry>
                </mxCell>
                <mxCell id="59" value="cout &amp;lt;&amp;lt; &quot;*&quot;;" style="shape=parallelogram;perimeter=parallelogramPerimeter;whiteSpace=wrap;html=1;fixedSize=1;" vertex="1" parent="1">
                    <mxGeometry x="185.06" y="1210" width="120" height="60" as="geometry"/>
                </mxCell>
                <mxCell id="60" style="edgeStyle=orthogonalEdgeStyle;html=1;exitX=0.5;exitY=0;exitDx=0;exitDy=0;" edge="1" parent="1" source="61">
                    <mxGeometry relative="1" as="geometry">
                        <mxPoint x="245.6482352941178" y="1329.8823529411766" as="targetPoint"/>
                    </mxGeometry>
                </mxCell>
                <mxCell id="63" style="edgeStyle=orthogonalEdgeStyle;html=1;" edge="1" parent="1" source="61" target="62">
                    <mxGeometry relative="1" as="geometry"/>
                </mxCell>
                <mxCell id="61" value="stars += 2;" style="rounded=0;whiteSpace=wrap;html=1;" vertex="1" parent="1">
                    <mxGeometry x="185.06" y="1330" width="120" height="40" as="geometry"/>
                </mxCell>
                <mxCell id="64" style="edgeStyle=orthogonalEdgeStyle;html=1;entryX=0;entryY=0.5;entryDx=0;entryDy=0;" edge="1" parent="1" source="62" target="8">
                    <mxGeometry relative="1" as="geometry">
                        <mxPoint x="70" y="670" as="targetPoint"/>
                        <Array as="points">
                            <mxPoint x="80" y="1425"/>
                            <mxPoint x="80" y="670"/>
                        </Array>
                    </mxGeometry>
                </mxCell>
                <mxCell id="62" value="cout &lt;&lt; endl;" style="shape=parallelogram;perimeter=parallelogramPerimeter;whiteSpace=wrap;html=1;fixedSize=1;" vertex="1" parent="1">
                    <mxGeometry x="185.06" y="1400" width="120" height="50" as="geometry"/>
                </mxCell>
                <mxCell id="68" value="конец" style="rounded=1;whiteSpace=wrap;html=1;" vertex="1" parent="1">
                    <mxGeometry x="455" y="1540" width="120" height="60" as="geometry"/>
                </mxCell>
                <mxCell id="70" value="return 0" style="strokeWidth=2;html=1;shape=mxgraph.flowchart.annotation_2;align=left;labelPosition=right;pointerEvents=1;shadow=0;glass=0;sketch=0;" vertex="1" parent="1">
                    <mxGeometry x="515" y="1480" width="50" height="50" as="geometry"/>
                </mxCell>
            </root>
        </mxGraphModel>
    </diagram>
</mxfile>